Run_20002
nRows=4
nColumns=164

# SIMM Motion File Header:
name Run_20002
datacolumns 164
datarows 4
otherdata 1
range 0.04000000 0.07000000
endheader
time	pelvis_tilt	pelvis_list	pelvis_rotation	pelvis_tx	pelvis_ty	pelvis_tz	hip_flexion_r	hip_adduction_r	hip_rotation_r	knee_angle_r	ankle_angle_r	hip_flexion_l	hip_adduction_l	hip_rotation_l	knee_angle_l	ankle_angle_l	lumbar_extension	lumbar_bending	lumbar_rotation	arm_flex_r	arm_add_r	arm_rot_r	elbow_flex_r	pro_sup_r	arm_flex_l	arm_add_l	arm_rot_l	elbow_flex_l	pro_sup_l	subtalar_angle_r	mtp_angle_r	subtalar_angle_l	mtp_angle_l	wrist_flex_r	wrist_dev_r	wrist_flex_l	wrist_dev_l	LASI_tx	LASI_ty	LASI_tz	RASI_tx	RASI_ty	RASI_tz	LPSI_tx	LPSI_ty	LPSI_tz	RPSI_tx	RPSI_ty	RPSI_tz	RTH1_tx	RTH1_ty	RTH1_tz	RTH2_tx	RTH2_ty	RTH2_tz	RTH3_tx	RTH3_ty	RTH3_tz	LTH1_tx	LTH1_ty	LTH1_tz	LTH2_tx	LTH2_ty	LTH2_tz	LTH3_tx	LTH3_ty	LTH3_tz	RTB1_tx	RTB1_ty	RTB1_tz	RTB2_tx	RTB2_ty	RTB2_tz	RTB3_tx	RTB3_ty	RTB3_tz	LTB1_tx	LTB1_ty	LTB1_tz	LTB2_tx	LTB2_ty	LTB2_tz	LTB3_tx	LTB3_ty	LTB3_tz	RCAL_tx	RCAL_ty	RCAL_tz	RTOE_tx	RTOE_ty	RTOE_tz	RMT5_tx	RMT5_ty	RMT5_tz	LCAL_tx	LCAL_ty	LCAL_tz	LTOE_tx	LTOE_ty	LTOE_tz	LMT5_tx	LMT5_ty	LMT5_tz	LACR_tx	LACR_ty	LACR_tz	RACR_tx	RACR_ty	RACR_tz	CLAV_tx	CLAV_ty	CLAV_tz	C7_tx	C7_ty	C7_tz	RUA1_tx	RUA1_ty	RUA1_tz	RUA2_tx	RUA2_ty	RUA2_tz	RUA3_tx	RUA3_ty	RUA3_tz	RLEL_tx	RLEL_ty	RLEL_tz	RMEL_tx	RMEL_ty	RMEL_tz	LUA1_tx	LUA1_ty	LUA1_tz	LUA2_tx	LUA2_ty	LUA2_tz	LUA3_tx	LUA3_ty	LUA3_tz	LLEL_tx	LLEL_ty	LLEL_tz	LMEL_tx	LMEL_ty	LMEL_tz	RFAsuperior_tx	RFAsuperior_ty	RFAsuperior_tz	RFAradius_tx	RFAradius_ty	RFAradius_tz	RFAulna_tx	RFAulna_ty	RFAulna_tz	LFAsuperior_tx	LFAsuperior_ty	LFAsuperior_tz	LFAradius_tx	LFAradius_ty	LFAradius_tz	LFAulna_tx	LFAulna_ty	LFAulna_tz
      0.04000000	     -5.60171553	     -0.70927631	     -5.42025932	      0.95175811	      0.99291226	     -0.30281258	     -7.84390970	      1.18891771	     -6.04728316	    -30.99888873	    -15.61137300	     25.25724793	      2.97941976	     -3.38684841	    -11.53344143	      1.92112624	     -4.54188088	     -0.62758555	     14.48835140	    -14.57989471	    -26.10605138	     -0.31997296	    114.95034716	     85.91588528	    -38.20936398	    -17.98087739	     -1.49879551	    112.11808129	    111.78377106	      0.00000000	      0.00000000	      0.00000000	      0.00000000	      0.00000000	      0.00000000	      0.00000000	      0.00000000	      0.96925916	      1.00789343	     -0.42148586	      0.94423981	      1.01613339	     -0.18450680	      0.79934487	      1.05749078	     -0.37267840	      0.78901423	      1.06095110	     -0.27272411	      0.83115533	      0.77901208	     -0.13950236	      0.86992191	      0.68482514	     -0.14921830	      0.78590573	      0.61070426	     -0.16597740	      0.96471860	      0.81585637	     -0.47497007	      1.03785520	      0.72504442	     -0.45086147	      1.00295114	      0.60683323	     -0.42476061	      0.71349528	      0.40041438	     -0.22980351	      0.62963989	      0.36898749	     -0.19148701	      0.58162084	      0.26903912	     -0.25540223	      1.08139521	      0.42626191	     -0.34995751	      1.04042010	      0.33559757	     -0.40602977	      1.08913925	      0.23677501	     -0.32974311	      0.45460760	      0.27346980	     -0.28783416	      0.55869296	      0.08074944	     -0.30929502	      0.49095020	      0.08760698	     -0.21546888	      1.01120933	      0.09959015	     -0.30837865	      1.22657288	      0.12593797	     -0.29377015	      1.19570660	      0.07560273	     -0.38806867	      0.93130019	      1.49647827	     -0.47247463	      0.95271346	      1.49564037	     -0.18487090	      1.02189557	      1.41780573	     -0.31784739	      0.89200686	      1.52214155	     -0.32168825	      0.92798761	      1.40043710	     -0.07685510	      0.86273267	      1.34313162	     -0.06561845	      0.91464774	      1.28729015	     -0.01643966	      0.89815954	      1.21965003	      0.01882391	      0.85340999	      1.18824355	     -0.03903733	      0.82569700	      1.42877454	     -0.55021147	      0.77288916	      1.39284924	     -0.49119476	      0.76548993	      1.34684663	     -0.56909089	      0.70364088	      1.28001785	     -0.58076993	      0.68689035	      1.27035638	     -0.50859423	      1.00490693	      1.21081906	     -0.02622337	      1.08713973	      1.21004876	     -0.13724798	      1.08556792	      1.14509913	     -0.11104898	      0.81149538	      1.23414038	     -0.56905735	      0.91285493	      1.16463428	     -0.49264146	      0.88045116	      1.12343700	     -0.53704505
      0.05000000	     -5.15482583	     -1.22498844	     -5.36366866	      0.95240985	      0.98887010	     -0.30286764	     -6.85730979	      1.29351993	     -5.63044856	    -35.28071592	    -17.12528300	     24.40109050	      2.77741252	     -3.86185648	    -12.81598397	      0.00441465	     -4.88060279	     -0.08754396	     13.75302705	    -14.58906417	    -26.27768282	     -0.15459252	    115.03019263	     86.05893784	    -38.28836888	    -17.47132746	     -1.94672635	    112.41582106	    111.29312288	      0.00000000	      0.00000000	      0.00000000	      0.00000000	      0.00000000	      0.00000000	      0.00000000	      0.00000000	      0.96829558	      1.00317832	     -0.42335555	      0.94487830	      1.01279502	     -0.18418450	      0.80045090	      1.05134113	     -0.37359603	      0.78969034	      1.05525229	     -0.27345342	      0.83681676	      0.77406831	     -0.13780366	      0.87705249	      0.68040808	     -0.14660827	      0.79444530	      0.60443133	     -0.16247108	      0.96542710	      0.80902177	     -0.47244973	      1.03797845	      0.71924298	     -0.44834509	      1.00152038	      0.60022714	     -0.42225019	      0.71930546	      0.39624354	     -0.22536375	      0.63415296	      0.36860715	     -0.18737136	      0.58178087	      0.27106074	     -0.25136721	      1.07446625	      0.41694812	     -0.34628156	      1.03165871	      0.32826691	     -0.40218474	      1.07900216	      0.22856949	     -0.32607775	      0.45759276	      0.28343209	     -0.28259310	      0.54586561	      0.08346252	     -0.30737901	      0.47985877	      0.09420968	     -0.21370469	      0.99836240	      0.09951274	     -0.30285120	      1.21402042	      0.10721854	     -0.29107016	      1.17929000	      0.06368750	     -0.38691838	      0.93185817	      1.49225088	     -0.47263622	      0.94955703	      1.49119249	     -0.18514544	      1.02081788	      1.41386475	     -0.31722395	      0.89090855	      1.51753699	     -0.32252351	      0.92422144	      1.39639057	     -0.07723147	      0.85895666	      1.33878926	     -0.06663716	      0.91070729	      1.28363579	     -0.01631950	      0.89374972	      1.21600573	      0.01890537	      0.84978669	      1.18429340	     -0.03900178	      0.82701962	      1.42415607	     -0.55122533	      0.77401621	      1.38812729	     -0.49236312	      0.76698413	      1.34182129	     -0.56992637	      0.70554986	      1.27412938	     -0.58109411	      0.68922574	      1.26453607	     -0.50900323	      1.00116285	      1.20721867	     -0.02515795	      1.08419522	      1.20623331	     -0.13557550	      1.08254753	      1.14141453	     -0.10908264	      0.81365580	      1.22956693	     -0.56895851	      0.91584602	      1.16078032	     -0.49307689	      0.88387368	      1.11897252	     -0.53684209
      0.06000000	     -4.67642921	     -1.44785710	     -5.38895281	      0.95265402	      0.98439556	     -0.30276148	     -5.72356655	      1.08797498	     -5.23403014	    -39.71106544	    -18.83238875	     23.80820746	      2.81006404	     -4.44512047	    -14.52741225	     -1.06407286	     -5.26959243	      0.09835874	     13.05651519	    -14.57703247	    -26.35495025	      0.00232651	    115.00936429	     86.21307512	    -38.17021280	    -17.10487457	     -2.36294623	    112.64139892	    110.45849010	      0.00000000	      0.00000000	      0.00000000	      0.00000000	      0.00000000	      0.00000000	      0.00000000	      0.00000000	      0.96787322	      0.99830794	     -0.42406717	      0.94553140	      1.00873868	     -0.18387865	      0.80078559	      1.04471542	     -0.37449767	      0.78992769	      1.04886718	     -0.27442175	      0.84256716	      0.76842888	     -0.13607141	      0.88435105	      0.67539541	     -0.14355293	      0.80336125	      0.59768298	     -0.15893887	      0.96615160	      0.80274471	     -0.47048910	      1.03783392	      0.71263761	     -0.44578079	      0.99991132	      0.59432620	     -0.42022279	      0.72590834	      0.39161097	     -0.22085760	      0.63954180	      0.36770362	     -0.18331186	      0.58289739	      0.27280529	     -0.24754752	      1.06996452	      0.40892342	     -0.34338934	      1.02499794	      0.32205186	     -0.39831499	      1.07046733	      0.22167837	     -0.32195727	      0.46197399	      0.29274069	     -0.27727075	      0.53361997	      0.08657628	     -0.30572605	      0.46968391	      0.10095247	     -0.21188541	      0.98507095	      0.10016892	     -0.29791687	      1.20108938	      0.09090863	     -0.28783140	      1.16308873	      0.05521014	     -0.38563559	      0.93239994	      1.48734380	     -0.47284053	      0.94653456	      1.48615439	     -0.18534529	      1.01990950	      1.40921734	     -0.31653795	      0.88951306	      1.51220744	     -0.32343754	      0.92009889	      1.39173692	     -0.07764707	      0.85474008	      1.33383545	     -0.06773393	      0.90624323	      1.27935916	     -0.01622294	      0.88898349	      1.21177176	      0.01904954	      0.84570575	      1.17977658	     -0.03897790	      0.82851241	      1.41857211	     -0.55238310	      0.77518085	      1.38228111	     -0.49366824	      0.76889918	      1.33571200	     -0.57107320	      0.70789954	      1.26725050	     -0.58192395	      0.69163864	      1.25775248	     -0.50989678	      0.99694701	      1.20287164	     -0.02396625	      1.08089033	      1.20155158	     -0.13370804	      1.07899001	      1.13688161	     -0.10694826	      0.81641281	      1.22396584	     -0.56949770	      0.91942447	      1.15612513	     -0.49388474	      0.88777841	      1.11373294	     -0.53670841
      0.07000000	     -4.16385902	     -1.23869409	     -5.37283896	      0.95204356	      0.97941929	     -0.30275894	     -4.31291132	      0.40036691	     -5.02228408	    -44.46788659	    -20.33939094	     23.79660728	      3.27387209	     -4.92268991	    -17.33310474	     -0.53142095	     -5.75329441	     -0.21405677	     12.25318359	    -14.49612234	    -26.27637931	      0.12088908	    114.79283685	     86.44425554	    -37.69487217	    -16.95188560	     -2.66227218	    112.70764425	    109.41663259	      0.00000000	      0.00000000	      0.00000000	      0.00000000	      0.00000000	      0.00000000	      0.00000000	      0.00000000	      0.96756226	      0.99347643	     -0.42361848	      0.94602208	      1.00365396	     -0.18388118	      0.79987210	      1.03766670	     -0.37498866	      0.78936675	      1.04157108	     -0.27544495	      0.84835175	      0.76184093	     -0.13438792	      0.89177904	      0.66969831	     -0.14004128	      0.81282213	      0.59025295	     -0.15558094	      0.96675680	      0.79773139	     -0.46945694	      1.03760369	      0.70605381	     -0.44344089	      0.99905701	      0.59004453	     -0.41892527	      0.73374330	      0.38660741	     -0.21652421	      0.64644972	      0.36620332	     -0.17939962	      0.58545501	      0.27430770	     -0.24366501	      1.06851917	      0.40353378	     -0.34077414	      1.02194879	      0.31801996	     -0.39472906	      1.06304467	      0.21700091	     -0.31724796	      0.46818850	      0.30118672	     -0.27195600	      0.52329929	      0.09040419	     -0.30367159	      0.46141325	      0.10815875	     -0.20963676	      0.97049661	      0.10157382	     -0.29411296	      1.18694680	      0.07916344	     -0.28434880	      1.14655411	      0.05144413	     -0.38419545	      0.93291763	      1.48150415	     -0.47331416	      0.94353219	      1.48044663	     -0.18534562	      1.01929987	      1.40352718	     -0.31573580	      0.88775937	      1.50615793	     -0.32435095	      0.91537450	      1.38612747	     -0.07804145	      0.84989963	      1.32790803	     -0.06899424	      0.90103562	      1.27409492	     -0.01619182	      0.88358556	      1.20665867	      0.01921844	      0.84092477	      1.17444540	     -0.03906560	      0.83026639	      1.41153433	     -0.55377772	      0.77643745	      1.37480688	     -0.49530110	      0.77141292	      1.32797037	     -0.57270684	      0.71096092	      1.25887294	     -0.58356365	      0.69427394	      1.24944148	     -0.51158711	      0.99200334	      1.19739599	     -0.02259503	      1.07704297	      1.19555068	     -0.13153126	      1.07468171	      1.13105636	     -0.10450873	      0.82001649	      1.21685574	     -0.57080064	      0.92364179	      1.15032992	     -0.49481364	      0.89240743	      1.10727051	     -0.53666907
